<svg xmlns="http://www.w3.org/2000/svg" viewBox="0 0 400 400"><defs><linearGradient id="sky" x2="0" y2="1"><stop stop-color="#e9fbfa"/><stop offset="1" stop-color="#cff1f3"/></linearGradient></defs><rect width="400" height="400" rx="28" fill="url(#sky)"/><circle cx="312" cy="73" r="35" fill="#ffe6a1"/><path d="M0 222Q89 204 187 225T400 218V400H0Z" fill="#86d1d9"/><path d="M0 271Q112 255 203 292T400 274V400H0Z" fill="#f3dfbb"/><path d="M25 232Q40 156 64 112" stroke="#987b59" stroke-width="9"/><path d="M63 113Q10 87 0 120M62 110Q58 59 22 60M64 110Q94 68 127 93M64 112Q118 109 133 142" fill="none" stroke="#82bb9d" stroke-width="12"/><path d="M89 400v-39q8-64 82-74h58q77 11 82 74v39" fill="#edb476"/><path d="m174 285 26 36 28-37 19 30-47 34-43-35" fill="#fff8ee"/><path d="M177 247v47q22 25 45 0v-47" fill="#e5b496"/><path d="M116 180q-5-111 84-112 91 1 88 112l-13 77q-29 43-76 43-50 0-74-43Z" fill="#705043"/><ellipse cx="127" cy="214" rx="17" ry="23" fill="#f1c8ac"/><ellipse cx="272" cy="214" rx="17" ry="23" fill="#f1c8ac"/><path d="M135 155q66-31 130 0v70q-4 61-65 65-62-4-65-65Z" fill="#f5cfb4"/><path d="M126 172q-5-83 75-91 81 5 76 92l-35-44-22 30-19-35-30 34-13-18Z" fill="#705043"/><path d="M146 189q15-10 33-1m43 0q19-9 33 1" fill="none" stroke="#705043" stroke-width="5" stroke-linecap="round"/><ellipse cx="165" cy="211" rx="15" ry="20" fill="#fffdf8"/><ellipse cx="237" cy="211" rx="15" ry="20" fill="#fffdf8"/><ellipse cx="168" cy="214" rx="10" ry="15" fill="#43868a"/><ellipse cx="234" cy="214" rx="10" ry="15" fill="#43868a"/><ellipse cx="169" cy="216" rx="5" ry="10" fill="#273a49"/><ellipse cx="233" cy="216" rx="5" ry="10" fill="#273a49"/><circle cx="171" cy="206" r="4" fill="white"/><circle cx="236" cy="206" r="4" fill="white"/><path d="m199 221-4 12h8m-18 18q16 12 31-1" fill="none" stroke="#b78075" stroke-width="3" stroke-linecap="round"/><ellipse cx="151" cy="238" rx="12" ry="5" fill="#ebb4a5"/><ellipse cx="250" cy="238" rx="12" ry="5" fill="#ebb4a5"/><path d="M138 168q61-65 126 0" fill="none" stroke="#c4a47c" stroke-width="13"/></svg>